<?xml version="1.0" standalone="no"?>
<!DOCTYPE svg PUBLIC "-//W3C//DTD SVG 20010904//EN"
 "http://www.w3.org/TR/2001/REC-SVG-20010904/DTD/svg10.dtd">
<svg version="1.0" xmlns="http://www.w3.org/2000/svg"
 width="500.000000pt" height="500.000000pt" viewBox="0 0 500.000000 500.000000"
 preserveAspectRatio="xMidYMid meet">
<metadata>
Created by potrace 1.14, written by Peter Selinger 2001-2017
</metadata>
<g transform="translate(0.000000,500.000000) scale(0.100000,-0.100000)"
fill="#000000" stroke="none">
<path d="M3939 3656 c-2 -2 -26 -6 -54 -10 -131 -15 -377 -117 -442 -181 -8
-8 -18 -15 -23 -15 -19 0 -191 -179 -236 -245 -83 -122 -155 -298 -179 -435
-4 -19 -11 -57 -15 -85 -5 -27 -8 -133 -6 -235 4 -166 7 -211 21 -260 2 -8 7
-29 10 -46 28 -171 143 -380 282 -516 184 -181 421 -276 708 -284 247 -6 406
37 595 162 59 39 180 149 180 163 0 5 -104 133 -163 201 -12 14 -49 58 -81 97
-64 78 -60 77 -111 30 -45 -42 -141 -101 -194 -119 -74 -26 -185 -34 -259 -18
-176 37 -304 174 -355 380 -26 104 -30 137 -29 270 1 221 60 387 182 511 108
109 265 152 419 114 65 -16 131 -51 229 -125 32 -24 34 -24 44 -6 6 10 18 26
27 35 9 9 52 61 96 116 44 54 99 121 123 149 23 27 42 53 42 57 0 28 -162 146
-280 205 -77 38 -120 53 -232 81 -25 6 -294 14 -299 9z"/>
<path d="M545 3629 c-84 -7 -117 -21 -132 -57 -8 -20 -11 -324 -11 -1110 l0
-1082 264 0 264 0 1 23 c4 86 0 795 -5 829 -3 24 -10 93 -16 153 -5 61 -12
119 -14 130 -2 11 -7 52 -11 90 -4 39 -8 77 -10 85 -11 60 -15 151 -7 146 8
-5 22 -45 27 -76 0 -3 3 -9 6 -15 3 -5 41 -113 83 -240 42 -126 136 -390 209
-585 l132 -355 158 -2 158 -2 10 27 c5 15 13 36 18 47 8 18 190 506 244 655
26 71 177 510 184 533 3 9 9 17 14 17 8 0 7 -21 -6 -98 -2 -13 -7 -53 -11 -90
-3 -37 -8 -76 -10 -87 -2 -11 -6 -47 -10 -80 -3 -33 -10 -94 -16 -135 -5 -41
-12 -276 -13 -522 l-3 -448 269 0 269 0 -2 1120 -3 1120 -306 1 c-169 1 -311
-1 -317 -5 -6 -3 -16 -23 -22 -44 -6 -20 -16 -46 -21 -57 -5 -11 -22 -58 -38
-105 -16 -47 -55 -157 -86 -245 -87 -243 -231 -680 -256 -772 -12 -46 -25 -83
-30 -83 -8 0 -23 44 -64 190 -43 150 -68 224 -204 590 -27 74 -80 216 -116
315 -37 99 -69 188 -72 198 -4 14 -18 17 -82 18 -242 2 -337 5 -341 9 -3 3
-36 2 -75 -1z"/>
</g>
</svg>
